<?xml version="1.0" standalone="no"?>
<!DOCTYPE svg PUBLIC "-//W3C//DTD SVG 20010904//EN"
 "http://www.w3.org/TR/2001/REC-SVG-20010904/DTD/svg10.dtd">
<svg version="1.0" xmlns="http://www.w3.org/2000/svg"
 width="780.000000pt" height="1280.000000pt" viewBox="0 0 780.000000 1280.000000"
 preserveAspectRatio="xMidYMid meet">
<metadata>
Created by potrace 1.15, written by Peter Selinger 2001-2017
</metadata>
<g transform="translate(0.000000,1280.000000) scale(0.100000,-0.100000)"
fill="#000000" stroke="none">
<path d="M7670 12765 c-142 -64 -294 -70 -500 -19 -121 30 -276 36 -375 15
-33 -8 -152 -46 -265 -86 -113 -40 -239 -79 -280 -86 -80 -14 -276 -17 -590
-9 l-195 5 -79 -32 -79 -32 -72 68 c-53 50 -87 74 -126 87 -77 27 -202 23
-369 -11 -229 -46 -326 -40 -600 41 -82 24 -258 22 -405 -5 -93 -17 -188 -24
-420 -32 -165 -5 -313 -13 -330 -17 -40 -11 -43 -41 -10 -80 36 -43 167 -129
218 -143 59 -17 396 -14 591 6 174 17 208 14 348 -30 171 -54 331 -66 568 -44
188 17 362 -21 393 -88 24 -53 -5 -58 -408 -73 -271 -10 -405 -26 -508 -61
-84 -28 -117 -47 -237 -132 -57 -42 -141 -95 -185 -118 -178 -94 -416 -278
-506 -392 -77 -96 -115 -218 -107 -339 7 -102 42 -149 124 -168 117 -28 575 5
919 66 94 16 201 18 210 4 10 -16 -10 -36 -110 -111 -84 -62 -182 -159 -265
-259 l-35 -42 -120 -13 c-326 -36 -663 -156 -796 -282 -171 -162 -279 -420
-279 -662 0 -90 -32 -234 -136 -608 -57 -206 -129 -488 -160 -627 -127 -568
-164 -697 -233 -803 -52 -80 -116 -141 -251 -238 -153 -111 -281 -228 -612
-563 -354 -358 -424 -412 -555 -430 -64 -9 -197 0 -276 19 -38 9 -48 16 -54
37 -8 34 4 2189 17 2997 5 341 15 811 22 1045 17 569 17 587 -16 687 -18 57
-40 98 -70 135 l-43 53 39 45 c102 116 171 250 243 470 61 186 52 324 -15 221
-14 -22 -68 -87 -120 -146 -131 -147 -209 -259 -279 -400 -140 -279 -191 -534
-191 -940 0 -192 8 -252 36 -272 15 -11 21 -10 36 4 26 23 36 69 48 233 21
273 85 520 135 520 9 0 16 -15 20 -42 3 -24 7 -302 9 -618 3 -377 8 -595 15
-632 8 -40 9 -63 2 -77 -31 -58 -48 -550 -61 -1836 -10 -991 -22 -1524 -34
-1543 -3 -6 -65 -29 -137 -52 -187 -60 -205 -87 -121 -176 31 -33 70 -95 112
-178 36 -71 80 -145 97 -166 18 -21 38 -51 44 -66 6 -17 14 -153 19 -324 23
-766 -5 -3012 -41 -3450 -6 -69 -14 -186 -18 -260 -8 -133 -8 -136 -52 -225
-49 -99 -54 -147 -30 -270 36 -181 70 -206 71 -52 1 97 13 155 39 180 l21 22
47 -25 c51 -27 76 -70 68 -117 -2 -15 -12 -79 -21 -141 -20 -127 -16 -145 34
-150 24 -2 38 5 66 32 50 50 66 113 66 256 0 153 -12 210 -60 290 -35 59 -40
74 -46 155 -6 84 3 552 26 1465 6 206 14 830 20 1385 10 1039 17 1214 46 1246
21 24 101 71 374 219 124 68 293 165 375 215 83 50 195 116 250 145 55 29 123
67 150 85 28 17 82 48 120 70 39 21 97 57 130 80 33 23 103 67 155 98 101 58
114 68 362 264 282 223 355 303 452 492 90 176 174 444 196 628 6 48 25 147
41 218 17 72 62 285 99 475 72 357 131 595 155 619 11 11 22 -5 74 -110 42
-87 86 -156 147 -234 95 -121 141 -204 173 -310 28 -96 38 -166 56 -410 9
-115 20 -239 26 -275 30 -199 42 -315 65 -634 33 -451 32 -466 -36 -626 -81
-193 -113 -283 -210 -590 -104 -334 -125 -410 -140 -505 -6 -38 -27 -117 -46
-175 -19 -58 -41 -141 -49 -184 -8 -51 -19 -82 -29 -88 -11 -6 -16 -24 -16
-58 0 -66 -39 -276 -106 -565 -66 -288 -68 -297 -88 -453 -11 -79 -26 -147
-45 -195 -53 -134 -77 -287 -91 -567 -12 -236 -24 -308 -86 -515 -66 -220
-136 -486 -204 -780 -103 -441 -136 -571 -209 -825 -84 -291 -101 -334 -158
-422 -52 -79 -108 -131 -218 -203 -132 -87 -265 -150 -690 -328 l-170 -72
-270 -5 c-238 -4 -274 -7 -304 -24 -48 -26 -131 -105 -131 -125 0 -10 16 -32
35 -51 l35 -34 933 3 c834 2 1102 8 1204 27 72 14 92 78 93 305 0 289 33 452
145 729 66 165 60 155 289 500 257 388 328 527 430 835 57 175 66 234 76 540
10 324 19 380 92 575 109 293 233 496 323 530 79 30 449 19 501 -14 47 -32 68
-100 75 -251 12 -237 64 -374 185 -490 40 -38 75 -81 78 -95 3 -14 23 -108 45
-210 22 -102 47 -237 56 -300 48 -341 225 -1211 359 -1760 20 -80 36 -165 36
-189 0 -91 -76 -179 -202 -235 -198 -88 -639 -188 -1033 -236 -297 -36 -405
-73 -405 -137 0 -40 19 -64 68 -86 44 -20 59 -21 237 -17 105 3 566 5 1025 5
640 0 848 -3 889 -13 30 -7 56 -10 59 -7 3 2 -3 120 -12 262 -25 383 -22 618
8 833 46 321 86 831 86 1097 0 303 -64 527 -215 758 -29 44 -58 100 -65 124
-6 24 -18 54 -25 65 -51 78 -146 714 -144 966 1 101 -6 165 -35 335 -75 440
-101 722 -101 1105 l0 275 43 160 c64 244 61 290 -49 659 -126 426 -153 644
-147 1181 l3 310 57 165 c31 91 67 201 78 244 12 44 60 167 107 275 47 108
110 257 140 331 64 156 92 210 109 210 19 0 70 -47 95 -86 22 -36 18 -63 -5
-31 -24 32 -43 20 -50 -29 -10 -75 -7 -1215 4 -1379 6 -82 20 -206 31 -275 27
-165 25 -266 -5 -425 -41 -215 -50 -334 -51 -615 0 -293 10 -389 56 -558 57
-206 67 -252 89 -404 37 -256 23 -354 -90 -597 -135 -293 -168 -530 -88 -643
17 -25 26 -28 73 -28 46 0 57 -4 69 -22 16 -24 69 -146 81 -186 l7 -23 -169 3
c-165 3 -168 3 -171 -18 -6 -45 105 -84 237 -84 96 0 106 -9 98 -96 -6 -80
-54 -286 -91 -393 -14 -40 -23 -77 -20 -82 17 -28 74 14 74 55 0 7 9 24 20 37
l20 24 19 -23 c11 -12 22 -41 26 -64 7 -38 5 -44 -20 -64 -56 -44 -2 -74 63
-34 60 37 65 82 26 257 -20 87 -28 157 -32 267 -4 141 -4 148 14 143 11 -3 86
-16 168 -28 145 -23 148 -23 162 -4 8 10 17 34 20 53 5 28 3 38 -11 49 -22 15
-107 17 -210 3 -38 -5 -72 -7 -74 -4 -3 2 25 35 61 72 80 82 103 115 117 170
7 23 27 57 45 76 64 64 63 54 76 551 6 209 15 452 20 540 23 385 31 563 45
1081 8 303 20 584 27 625 19 125 21 387 8 1046 -14 663 -13 682 28 698 10 4
72 10 139 14 205 13 208 18 208 361 0 191 -4 263 -17 325 -21 100 -34 185 -53
347 -34 287 -109 621 -174 771 -61 144 -311 661 -375 777 -114 206 -201 301
-395 431 -214 144 -408 219 -670 259 -71 11 -136 23 -145 26 -35 13 -30 86 8
106 14 8 165 14 466 19 258 4 465 12 493 18 26 6 87 29 135 50 135 60 158 66
272 66 75 -1 133 -7 202 -24 83 -20 116 -23 220 -19 105 4 137 10 221 38 97
32 250 112 295 154 44 40 63 97 46 140 -9 24 -40 19 -124 -19z m-3608 -115
c-3 -20 -1 -22 23 -16 35 9 48 0 35 -25 -21 -39 -90 -16 -90 30 0 15 3 31 7
35 13 13 28 -1 25 -24z m-197 10 c-3 -5 -13 -10 -21 -10 -8 0 -14 5 -14 10 0
6 9 10 21 10 11 0 17 -4 14 -10z m1065 -20 c0 -5 -4 -10 -10 -10 -5 0 -10 5
-10 10 0 6 5 10 10 10 6 0 10 -4 10 -10z m2105 -22 c182 -46 179 -46 188 1 4
20 13 31 23 31 13 0 15 -6 11 -30 -8 -35 -3 -37 116 -43 84 -4 96 -9 78 -31
-38 -46 -280 -46 -491 -1 -183 39 -260 29 -465 -65 -131 -59 -139 -60 -606
-60 l-427 0 -62 -67 c-75 -83 -132 -123 -175 -123 -25 0 -40 10 -77 53 -31 36
-71 67 -120 93 -72 38 -75 39 -178 39 -58 -1 -170 -6 -250 -12 -196 -16 -309
-5 -487 48 -182 53 -291 61 -413 30 -69 -18 -113 -22 -228 -22 -79 0 -165 3
-190 6 -56 8 -142 34 -142 43 0 4 60 8 133 8 83 1 200 12 316 28 225 33 332
36 431 14 215 -48 410 -59 580 -33 52 8 140 22 195 31 55 8 136 16 180 16 98
1 133 -14 228 -101 37 -34 76 -61 86 -61 10 0 40 10 67 22 47 20 69 22 467 29
230 5 446 13 480 20 34 6 118 32 187 59 296 114 364 124 545 78z m-3419 -15
c-10 -10 -19 5 -10 18 6 11 8 11 12 0 2 -7 1 -15 -2 -18z m-146 -29 c0 -8 -4
-14 -10 -14 -5 0 -10 9 -10 21 0 11 5 17 10 14 6 -3 10 -13 10 -21z m2640 -84
c0 -5 -4 -10 -10 -10 -5 0 -10 5 -10 10 0 6 5 10 10 10 6 0 10 -4 10 -10z
m-780 -30 c0 -5 -4 -10 -10 -10 -5 0 -10 5 -10 10 0 6 5 10 10 10 6 0 10 -4
10 -10z m357 -326 c13 -4 20 -10 17 -15 -7 -12 23 -23 132 -48 117 -27 194
-59 320 -131 55 -33 112 -62 126 -65 17 -4 30 -19 40 -43 8 -21 50 -79 94
-131 149 -176 193 -234 200 -265 6 -31 47 -115 103 -213 17 -29 37 -75 45
-103 9 -30 32 -70 56 -97 22 -26 43 -58 45 -72 3 -14 34 -114 69 -221 73 -220
102 -344 152 -640 55 -324 85 -593 90 -815 6 -228 3 -242 -61 -263 -47 -16
-121 -9 -146 14 -16 14 -18 35 -18 168 0 83 -7 205 -16 271 -57 430 -156 678
-341 856 -77 74 -142 118 -263 179 -118 59 -184 80 -258 80 -44 0 -69 5 -79
15 -22 21 -93 19 -131 -5 -37 -22 -59 -53 -74 -101 -19 -67 -80 -959 -92
-1349 l-2 -75 -239 -7 c-132 -5 -241 -6 -244 -3 -2 2 3 291 12 642 19 741 20
1071 5 1143 -7 31 -28 77 -54 115 l-43 62 75 74 c95 94 219 258 266 351 45 92
61 182 54 307 -6 105 -19 162 -44 186 -26 26 -30 4 -25 -129 4 -118 -6 -238
-30 -332 -13 -55 -188 -287 -253 -336 -27 -20 -54 -47 -61 -60 -19 -34 -16
-87 7 -137 34 -76 39 -160 39 -709 l0 -534 -67 7 c-187 17 -305 49 -435 118
-143 75 -164 113 -155 277 9 155 77 380 129 427 19 17 20 17 34 -2 8 -10 14
-35 14 -55 0 -21 5 -52 12 -70 10 -31 12 -32 25 -15 15 22 18 128 3 156 -6 11
-21 19 -35 19 -32 0 -31 5 6 48 31 35 32 37 26 113 -8 101 -49 223 -96 285
-48 64 -146 116 -231 122 -67 5 -200 -9 -415 -43 -363 -58 -564 -72 -637 -47
-46 16 -48 25 -6 37 64 20 61 64 -5 65 -49 0 -157 69 -157 100 0 7 32 26 70
43 39 17 70 35 70 39 0 4 -20 13 -45 20 -25 7 -45 15 -45 18 0 11 184 167 268
227 48 35 130 85 182 112 93 48 164 96 304 205 136 107 186 122 531 160 453
51 1108 90 1182 70z m-1337 -24 c0 -5 -4 -10 -10 -10 -5 0 -10 5 -10 10 0 6 5
10 10 10 6 0 10 -4 10 -10z m-256 -81 c-7 -11 -34 -12 -34 -1 0 14 11 21 26
15 8 -3 11 -9 8 -14z m-3446 -144 c-11 -90 -128 -300 -235 -418 -34 -39 -63
-75 -63 -80 0 -6 32 -41 71 -78 l70 -69 -3 -597 c-3 -557 -9 -684 -29 -613
-12 41 -10 448 3 715 11 232 10 253 -6 287 -10 21 -15 46 -11 57 14 45 -60
133 -100 117 -36 -14 -135 -296 -170 -487 -33 -184 -33 -182 -34 -99 -4 275
68 621 175 847 67 141 293 463 325 463 8 0 10 -15 7 -45z m2992 -121 c0 -11
-34 -33 -49 -34 -11 0 -10 5 4 20 17 19 45 27 45 14z m-220 -184 c0 -5 -4 -10
-10 -10 -5 0 -10 5 -10 10 0 6 5 10 10 10 6 0 10 -4 10 -10z m1010 -600 c0 -5
-7 -10 -16 -10 -8 0 -12 5 -9 10 3 6 10 10 16 10 5 0 9 -4 9 -10z m168 -50
c41 -69 52 -109 52 -187 0 -75 -10 -103 -56 -157 -108 -125 -169 -356 -194
-726 -7 -116 -29 -708 -30 -817 0 -10 -49 -13 -211 -13 l-211 0 6 123 c4 67
13 250 21 407 30 576 57 860 91 980 34 121 116 230 226 303 120 80 241 148
258 144 8 -1 30 -27 48 -57z m632 -264 c0 -8 -4 -18 -10 -21 -5 -3 -10 3 -10
14 0 12 5 21 10 21 6 0 10 -6 10 -14z m-1204 -64 c-14 -14 -16 -14 -16 -1 0
20 23 44 29 28 2 -6 -4 -18 -13 -27z m-3602 -33 c-3 -5 -10 -7 -15 -3 -5 3 -7
10 -3 15 3 5 10 7 15 3 5 -3 7 -10 3 -15z m3440 12 c3 -4 -1 -17 -9 -27 -13
-16 -16 -17 -24 -4 -7 9 -6 19 1 27 12 15 25 17 32 4z m103 -57 c3 -9 -2 -31
-11 -51 -20 -43 -55 -43 -71 1 -8 24 -6 31 14 47 28 23 59 25 68 3z m2073 -18
c52 -13 70 -39 70 -104 0 -93 -92 -294 -167 -363 -15 -15 -50 -39 -77 -54
l-49 -29 7 160 c12 265 25 387 43 401 18 14 92 9 173 -11z m-2546 -37 c-3 -5
-10 -7 -15 -3 -5 3 -7 10 -3 15 3 5 10 7 15 3 5 -3 7 -10 3 -15z m393 -42 c61
-62 58 -42 43 -292 -18 -314 -31 -928 -22 -1028 15 -159 20 -161 356 -149
l198 7 -1 415 c-1 229 1 424 5 433 3 9 13 17 20 17 21 0 154 -69 188 -97 67
-56 137 -77 309 -93 59 -5 116 -14 127 -20 41 -22 45 -44 45 -295 0 -282 5
-303 84 -338 40 -18 60 -19 210 -14 182 5 221 13 262 53 53 51 69 129 99 499
29 359 37 386 127 448 27 17 65 50 86 72 47 49 110 176 133 268 9 37 25 79 36
92 66 84 292 -50 420 -250 141 -218 194 -410 223 -795 16 -209 16 -221 -5
-435 -18 -189 -22 -326 -30 -975 -5 -415 -14 -816 -19 -890 -12 -159 -18 -365
-31 -1055 -21 -1088 -37 -1461 -64 -1514 -9 -17 -29 -34 -48 -40 -54 -19 -294
-43 -390 -39 -102 4 -113 11 -93 68 7 20 21 75 30 121 23 116 50 199 100 299
79 158 127 345 128 490 0 109 -13 196 -55 364 -73 294 -105 604 -95 926 6 219
28 408 59 508 31 101 32 145 9 331 -63 504 -85 1440 -45 1846 5 52 3 64 -15
87 -12 15 -37 32 -57 38 -45 15 -60 3 -117 -95 -38 -64 -73 -139 -277 -590
-175 -385 -291 -845 -274 -1080 6 -89 6 -91 -21 -123 -33 -40 -190 -152 -300
-216 -125 -72 -416 -204 -544 -246 -174 -58 -540 -136 -546 -116 -2 6 -6 162
-8 346 -2 223 -8 344 -15 363 -17 41 -59 342 -72 514 -28 379 -65 486 -246
711 -50 62 -112 149 -139 193 -83 137 -135 332 -135 505 0 67 -20 87 -48 47
-54 -78 -155 -411 -226 -748 -14 -67 -42 -181 -61 -255 -60 -229 -114 -465
-161 -695 -71 -346 -151 -558 -271 -715 -86 -111 -123 -145 -335 -303 -313
-233 -543 -389 -621 -422 -20 -8 -37 -22 -37 -29 0 -8 -33 -30 -73 -49 -41
-19 -168 -91 -283 -159 -270 -161 -559 -327 -575 -330 -9 -2 -16 16 -21 57
-21 158 -63 198 -235 225 -40 7 -73 16 -73 21 0 5 76 9 173 9 195 0 214 4 381
83 128 61 207 117 290 206 283 302 415 422 661 600 153 111 276 217 345 299
78 91 104 150 140 310 131 598 232 1018 290 1207 88 288 101 337 121 438 10
54 19 124 19 156 0 175 97 491 186 608 31 41 114 90 245 146 172 74 320 114
423 116 59 1 60 1 113 -52z m2878 -427 c-5 -8 -11 -8 -17 -2 -6 6 -7 16 -3 22
5 8 11 8 17 2 6 -6 7 -16 3 -22z m-6298 -157 c-2 -16 -4 -5 -4 22 0 28 2 40 4
28 2 -13 2 -35 0 -50z m3 -147 c-14 -14 -24 0 -16 21 6 15 8 15 16 3 6 -9 5
-19 0 -24z m-3 -178 c-2 -13 -4 -3 -4 22 0 25 2 35 4 23 2 -13 2 -33 0 -45z
m5293 -28 c0 -5 -4 -10 -10 -10 -5 0 -10 5 -10 10 0 6 5 10 10 10 6 0 10 -4
10 -10z m-5287 -168 c-5 -20 -14 -37 -21 -40 -22 -7 -25 29 -7 87 l18 56 9
-34 c5 -19 6 -49 1 -69z m5733 -369 c-10 -10 -19 5 -10 18 6 11 8 11 12 0 2
-7 1 -15 -2 -18z m-5750 -333 c6 -271 -5 -528 -25 -580 -20 -54 -24 18 -18
319 15 663 31 765 43 261z m3484 -291 c0 -5 -7 -9 -15 -9 -15 0 -20 12 -9 23
8 8 24 -1 24 -14z m-3519 -534 c0 -31 -2 -59 -5 -63 -3 -3 -6 25 -6 63 0 38 3
66 6 63 3 -4 5 -32 5 -63z m25 -590 c7 -319 -8 -761 -26 -795 -6 -11 -18 -20
-27 -20 -12 0 -14 7 -9 33 13 58 25 407 26 718 0 168 3 335 7 370 6 60 7 62
15 29 4 -19 11 -170 14 -335z m5109 295 c4 -6 13 -67 21 -135 16 -141 13 -158
-40 -180 -18 -8 -113 -28 -212 -45 -191 -34 -325 -65 -358 -82 -11 -6 -41 -10
-66 -10 -25 1 -94 -10 -155 -24 -201 -46 -586 -124 -617 -124 -52 0 -16 26 55
39 209 41 419 103 657 196 197 76 251 105 584 308 114 70 121 73 131 57z
m-3470 -120 c3 -5 -1 -10 -10 -10 -9 0 -13 5 -10 10 3 6 8 10 10 10 2 0 7 -4
10 -10z m3528 -308 c10 -11 29 -79 47 -173 16 -85 45 -210 65 -279 45 -162 59
-260 53 -378 -4 -82 -12 -117 -49 -222 -43 -122 -44 -128 -42 -240 3 -183 55
-807 84 -995 6 -38 24 -140 41 -225 30 -153 41 -308 26 -361 l-8 -26 -217 -6
c-120 -3 -481 -14 -803 -23 -504 -15 -637 -15 -960 -5 -444 15 -450 15 -450
45 0 20 24 118 109 444 17 62 33 146 36 185 9 99 22 166 57 277 16 52 52 190
79 305 27 116 94 381 149 590 55 209 120 461 145 560 60 237 62 242 88 248
269 60 1000 215 1142 241 339 63 382 67 408 38z m-3953 -72 c0 -5 -4 -10 -10
-10 -5 0 -10 5 -10 10 0 6 5 10 10 10 6 0 10 -4 10 -10z m2260 -350 c0 -5 -4
-10 -10 -10 -5 0 -10 5 -10 10 0 6 5 10 10 10 6 0 10 -4 10 -10z m-3490 -340
c0 -37 -16 -58 -31 -43 -10 10 -10 21 0 54 10 31 15 39 22 28 5 -8 9 -25 9
-39z m3390 34 c0 -8 -4 -12 -10 -9 -5 3 -10 10 -10 16 0 5 5 9 10 9 6 0 10 -7
10 -16z m-3470 -74 c0 -5 -4 -10 -10 -10 -5 0 -10 5 -10 10 0 6 5 10 10 10 6
0 10 -4 10 -10z m305 -65 c79 -21 95 -37 95 -95 0 -96 -81 -210 -187 -264 -97
-49 -92 -37 -103 -251 -5 -104 -14 -716 -20 -1360 -9 -1082 -22 -1869 -38
-2424 l-7 -223 28 -42 c15 -22 45 -70 65 -106 35 -62 37 -69 36 -150 -2 -127
-33 -268 -55 -255 -4 3 -5 54 -2 113 7 128 -10 202 -58 257 -27 30 -37 35 -75
35 -57 0 -63 16 -30 72 41 72 48 175 72 1108 8 322 19 1156 24 1854 l10 1269
-72 136 c-75 143 -146 261 -181 298 -25 28 -18 32 88 36 230 9 353 7 410 -8z
m5916 -1882 c34 -34 18 -68 -72 -156 -44 -43 -86 -77 -92 -75 -23 7 -87 148
-87 192 0 63 10 68 127 64 89 -3 106 -6 124 -25z m-766 -281 c59 -8 56 2 80
-252 40 -429 121 -751 253 -1010 46 -90 67 -143 74 -189 6 -36 19 -81 30 -102
50 -97 50 -663 -2 -1024 -26 -189 -77 -623 -90 -769 -11 -125 -4 -194 26 -278
24 -66 54 -208 54 -257 l0 -43 -152 5 c-138 4 -162 8 -248 37 -114 38 -154 37
-308 -9 -57 -17 -141 -35 -187 -41 -46 -6 -301 -15 -567 -20 -266 -5 -505 -12
-533 -16 -53 -6 -125 12 -132 33 -3 7 12 16 34 23 54 15 275 40 356 40 161 0
673 104 893 181 110 38 253 108 303 149 78 61 83 101 51 382 -37 323 -97 649
-241 1311 -38 175 -78 384 -89 465 -12 81 -28 196 -36 256 -8 59 -26 143 -39
185 -27 84 -99 214 -140 252 -38 35 -60 82 -99 211 -32 104 -90 371 -98 443
-3 29 -1 30 47 36 69 8 699 9 760 1z m-1727 -28 c77 -10 72 -31 -47 -221 -162
-259 -202 -401 -231 -818 -12 -170 -36 -370 -51 -430 -16 -60 -94 -274 -150
-410 -51 -125 -107 -228 -276 -505 -122 -200 -223 -387 -290 -535 -60 -131
-79 -188 -93 -276 -5 -36 -26 -117 -45 -180 -38 -124 -42 -173 -20 -264 17
-71 19 -189 4 -233 -12 -36 -36 -46 -150 -63 -124 -18 -263 -8 -330 23 -115
55 -183 58 -325 18 -89 -26 -283 -46 -575 -61 -232 -11 -693 -8 -737 6 -29 10
-40 51 -18 73 18 19 48 19 461 13 279 -4 303 3 790 244 314 156 496 259 533
303 37 43 97 176 135 302 20 63 57 183 82 265 109 352 150 496 220 770 40 160
90 349 109 420 72 259 133 598 161 900 35 373 101 641 164 664 26 10 591 6
679 -5z m2282 -364 c0 -5 -4 -10 -10 -10 -5 0 -10 5 -10 10 0 6 5 10 10 10 6
0 10 -4 10 -10z m-1000 -1030 c0 -5 -4 -10 -10 -10 -5 0 -10 5 -10 10 0 6 5
10 10 10 6 0 10 -4 10 -10z m-5040 -905 c9 -11 10 -19 2 -27 -14 -14 -32 -1
-32 23 0 23 13 25 30 4z"/>
<path d="M5128 12036 c-107 -44 -244 -141 -324 -229 -103 -113 -142 -228 -151
-444 -5 -126 -4 -143 10 -143 48 0 289 234 420 409 99 132 115 163 142 290 12
58 24 113 26 121 7 25 -59 23 -123 -4z m52 -20 c0 -2 -6 -37 -14 -78 -26 -135
-81 -256 -135 -295 -16 -12 -57 -62 -92 -110 -34 -48 -80 -107 -103 -131 -44
-46 -100 -69 -123 -50 -26 22 -15 107 35 252 52 154 70 179 203 282 78 60 229
146 229 130z"/>
<path d="M4078 11860 c-20 -11 -63 -44 -94 -73 -44 -41 -56 -58 -51 -72 7 -16
18 -17 120 -12 131 6 187 23 239 74 52 50 55 71 13 89 -52 21 -181 18 -227 -6z
m222 -40 c0 -5 -9 -10 -19 -10 -11 0 -28 -12 -39 -27 -20 -27 -24 -28 -126
-31 -111 -4 -128 3 -81 34 13 9 46 22 72 29 58 16 193 19 193 5z"/>
<path d="M3780 11219 c-95 -10 -269 -45 -306 -61 -44 -20 -21 -33 57 -32 51 0
100 9 158 28 73 23 98 26 196 24 93 -2 117 1 139 15 15 10 24 22 21 27 -7 12
-145 11 -265 -1z"/>
</g>
</svg>
